:SAMPLES-PER-SECOND 30
:FULLY-SPECIFIED
:DEGREES
119
root  71.4234 39.6676 -1.8861 -92.2427 -85.9732 92.565
RightUpLeg  -15.8284 -12.3548 -10.1818
RightLeg  15.2423 1.78367 0.759133
RightFoot  1.34766 -0.300417 2.78645
RightToes  -1.16417e-010 0 -3.6325e-017
Spine  21.8121 0.0559566 8.08112
Spine1  5.26307 4.00793 -10.1817
HEad  -26.0391 0.50351 -1.05626
LeftShoulder1  11.9794 -18.7783 -46.893
LeftArm  -11.3044 -30.639 -31.3379
LeftForeArm  4.24622 -42.7286 -10.0546
LeftHand  -0.244104 0.0205437 5.32207
RightShoulder  7.60918 15.3608 34.3512
RightArm  4.39313 40.8646 48.3293
RightForeArm  -30.9739 28.1777 7.51969
RightHand  -0.115469 0.0158533 -2.50581
LeftUpLeg  -11.4493 10.271 -2.52016
LeftLeg  10.9996 14.4456 -2.03429
LeftFoot  -2.02681 0.0112464 0.00849708
LeftToes  -2.09216e-011 1.96776e-011 -5.83545e-012
120
root  71.4564 39.6875 -1.90397 -92.2562 -86.1096 93.1833
RightUpLeg  -16.281 -12.1315 -9.91834
RightLeg  14.7166 1.56236 0.778393
RightFoot  1.60292 -0.300531 2.74428
RightToes  -1.16417e-010 0 -3.6325e-017
Spine  22.1693 0.158468 8.05042
Spine1  6.09753 4.12924 -9.76945
HEad  -27.1555 -0.585759 -0.537063
LeftShoulder1  12.0275 -18.4063 -47.9041
LeftArm  -8.40891 -24.8101 -31.2689
LeftForeArm  3.89048 -44.071 -10.5787
LeftHand  -0.244104 0.0205437 5.32207
RightShoulder  7.81515 15.3012 35.5558
RightArm  6.04986 33.4353 46.3198
RightForeArm  -30.3417 31.7383 8.43692
RightHand  -0.12875 0.425873 -2.60725
LeftUpLeg  -11.9642 9.84498 -2.30323
LeftLeg  10.6511 14.9109 -2.24271
LeftFoot  -1.93091 0.0298477 -0.221236
LeftToes  -2.09216e-011 1.96776e-011 -5.83545e-012
121
root  71.4808 39.7165 -1.92352 -86.1021 -86.2567 87.8047
RightUpLeg  -16.7377 -12.2735 -9.71459
RightLeg  14.1018 1.34687 0.901387
RightFoot  1.73579 -0.315268 2.85266
RightToes  -1.16417e-010 0 -3.6325e-017
Spine  22.5191 -0.016696 7.82802
Spine1  6.55177 3.80676 -9.10526
HEad  -27.834 -1.45512 -0.325673
LeftShoulder1  11.995 -18.2193 -48.192
LeftArm  -5.70991 -19.7551 -31.7222
LeftForeArm  3.03055 -44.5843 -10.8352
LeftHand  -0.244104 0.0205437 5.32207
RightShoulder  7.91896 15.1581 36.412
RightArm  8.5925 26.1546 44.7025
RightForeArm  -32.8318 34.9552 9.46049
RightHand  -0.154055 0.00871152 -3.4108
LeftUpLeg  -12.5662 9.04972 -2.07545
LeftLeg  10.0838 15.3595 -2.56069
LeftFoot  -1.79588 0.0636225 -0.632074
LeftToes  -2.09216e-011 1.96776e-011 -5.83545e-012
122
root  71.4981 39.7617 -1.94373 -77.6944 -86.3345 80.3578
RightUpLeg  -17.1902 -12.4561 -9.60932
RightLeg  13.2688 0.97026 1.12129
RightFoot  1.6342 -0.378591 3.42689
RightToes  -1.16417e-010 0 -3.6325e-017
Spine  22.8611 -0.367793 7.36183
Spine1  6.79697 3.1258 -8.09338
HEad  -28.4515 -1.77746 -0.6985
LeftShoulder1  12.0175 -18.2564 -48.2001
LeftArm  -3.44996 -14.9555 -32.3849
LeftForeArm  2.45605 -45.009 -11.0392
LeftHand  -0.244104 0.0205437 5.32207
RightShoulder  7.96961 15.023 36.9804
RightArm  9.9441 19.4339 43.6229
RightForeArm  -39.2428 37.7837 10.5753
RightHand  -0.146944 -2.45482 -5.49982
LeftUpLeg  -13.1961 7.79161 -1.81348
LeftLeg  9.16827 16.1416 -2.92995
LeftFoot  -1.63526 0.132361 -1.44259
LeftToes  -2.09216e-011 1.96776e-011 -5.83545e-012
123
root  71.5203 39.8211 -1.9708 -72.5063 -86.4152 76.2642
RightUpLeg  -17.6137 -12.3419 -9.57471
RightLeg  12.0504 0.295077 1.44069
RightFoot  1.51069 -0.495702 4.48901
RightToes  -1.16417e-010 0 -3.6325e-017
Spine  23.3923 -0.744693 6.74964
Spine1  6.89019 2.34028 -6.93891
HEad  -29.5356 -1.40907 -1.32578
LeftShoulder1  12.1041 -18.3706 -48.2945
LeftArm  -1.46679 -10.9009 -33.2321
LeftForeArm  2.43172 -44.8528 -10.9799
LeftHand  -0.244104 0.0205437 5.32207
RightShoulder  7.9421 14.8485 37.2332
RightArm  9.71126 13.5827 43.2844
RightForeArm  -45.7995 39.3363 11.3001
RightHand  -0.125802 -3.87735 -8.17681
LeftUpLeg  -13.7952 6.28379 -1.42841
LeftLeg  7.89388 17.3794 -3.37734
LeftFoot  -1.44215 0.21903 -2.42901
LeftToes  -2.09216e-011 1.96776e-011 -5.83545e-012
124
root  71.5517 39.8841 -2.00807 -74.5168 -86.6241 79.6227
RightUpLeg  -18.1901 -11.8783 -9.52509
RightLeg  10.3654 -0.503629 1.93789
RightFoot  1.59234 -0.634483 5.68716
RightToes  -1.16417e-010 0 -3.6325e-017
Spine  24.026 -1.09114 6.23946
Spine1  6.85245 1.70969 -6.21111
HEad  -31.1874 -0.61037 -1.74256
LeftShoulder1  12.1169 -18.4391 -48.1926
LeftArm  0.480635 -8.22768 -34.4966
LeftForeArm  2.60889 -43.4718 -10.445
LeftHand  -0.244104 0.0205437 5.32207
RightShoulder  7.82539 14.5834 37.225
RightArm  7.9675 8.55393 43.7263
RightForeArm  -47.6958 39.5289 11.4169
RightHand  -0.178605 -3.19241 -8.8571
LeftUpLeg  -14.524 4.9597 -0.880597
LeftLeg  6.35657 18.9171 -4.01799
LeftFoot  -1.19432 0.286468 -3.14657
LeftToes  -2.09216e-011 1.96776e-011 -5.83545e-012
125
root  71.579 39.9412 -2.0568 -86.8776 -86.9038 93.7053
RightUpLeg  -19.0714 -11.2482 -9.36237
RightLeg  8.27726 -1.17162 2.66613
RightFoot  1.80934 -0.768874 6.77001
RightToes  -1.16417e-010 0 -3.6325e-017
Spine  24.4487 -1.39765 5.91189
Spine1  6.78769 1.31537 -6.13013
HEad  -33.1179 0.317763 -1.94513
LeftShoulder1  12.0261 -18.4792 -47.737
LeftArm  2.44978 -6.79894 -35.9883
LeftForeArm  2.53031 -40.9412 -9.55339
LeftHand  -0.244104 0.0205437 5.32207
RightShoulder  7.72145 14.3641 37.1781
RightArm  5.35483 4.29196 44.4886
RightForeArm  -45.0137 39.1229 11.2049
RightHand  -0.241406 -1.85936 -7.78712
LeftUpLeg  -15.5954 4.20902 -0.232326
LeftLeg  4.79939 20.4684 -4.75351
LeftFoot  -0.895916 0.32057 -3.44914
LeftToes  -2.09216e-011 1.96776e-011 -5.83545e-012
126
root  71.5888 39.986 -2.12376 -109.136 -86.8778 117.853
RightUpLeg  -20.0251 -10.7072 -9.05382
RightLeg  5.89323 -1.76202 3.51557
RightFoot  2.05648 -0.912521 7.87662
RightToes  -1.16417e-010 0 -3.6325e-017
Spine  24.7065 -1.61273 5.50401
Spine1  6.73708 1.05613 -6.24719
HEad  -35.162 1.38755 -2.24802
LeftShoulder1  11.9936 -18.5434 -47.4636
LeftArm  4.46548 -6.19787 -37.0441
LeftForeArm  1.78473 -37.7626 -8.57484
LeftHand  -0.244104 0.0205437 5.32207
RightShoulder  7.74215 14.4061 37.1914
RightArm  3.36339 1.18362 45.0003
RightForeArm  -42.0086 38.4128 10.877
RightHand  -0.307653 -0.35306 -7.05649
LeftUpLeg  -16.9207 4.15373 0.380312
LeftLeg  3.54487 21.7934 -5.2712
LeftFoot  -0.60747 0.340759 -3.58871
LeftToes  -2.09216e-011 1.96776e-011 -5.83545e-012
